<?xml version="1.0" encoding="UTF-8" standalone="no"?>
<!-- Created with Inkscape (http://www.inkscape.org/) -->

<svg
   xmlns:dc="http://purl.org/dc/elements/1.1/"
   xmlns:cc="http://creativecommons.org/ns#"
   xmlns:rdf="http://www.w3.org/1999/02/22-rdf-syntax-ns#"
   xmlns:svg="http://www.w3.org/2000/svg"
   xmlns="http://www.w3.org/2000/svg"
   xmlns:sodipodi="http://sodipodi.sourceforge.net/DTD/sodipodi-0.dtd"
   xmlns:inkscape="http://www.inkscape.org/namespaces/inkscape"
   inkscape:version="0.92.3 (2405546, 2018-03-11)"
   sodipodi:docname="schema_sargent.svg"
   viewBox="0 0 524.62787 541.37677"
   height="541.37677"
   width="524.62787"
   xml:space="preserve"
   id="svg2"
   version="1.1"><sodipodi:namedview
     inkscape:current-layer="g10"
     inkscape:window-maximized="1"
     inkscape:window-y="27"
     inkscape:window-x="61"
     inkscape:cy="88.087373"
     inkscape:cx="2.9213909"
     inkscape:zoom="0.68910435"
     showgrid="false"
     id="namedview4"
     inkscape:window-height="1016"
     inkscape:window-width="1859"
     inkscape:pageshadow="2"
     inkscape:pageopacity="0"
     guidetolerance="10"
     gridtolerance="10"
     objecttolerance="10"
     borderopacity="1"
     bordercolor="#666666"
     pagecolor="#ffffff"
     fit-margin-top="0"
     fit-margin-left="0"
     fit-margin-right="0"
     fit-margin-bottom="0"
     inkscape:document-units="mm" /><metadata
     id="metadata8"><rdf:RDF><cc:Work
         rdf:about=""><dc:format>image/svg+xml</dc:format><dc:type
           rdf:resource="http://purl.org/dc/dcmitype/StillImage" /><dc:title></dc:title></cc:Work></rdf:RDF></metadata><defs
     id="defs6"><clipPath
       id="clipPath20"
       clipPathUnits="userSpaceOnUse"><path
         inkscape:connector-curvature="0"
         id="path18"
         d="m 304.82,3323.96 v 4158.2 h 3214.39 v -4158.2 z m 2070.44,2490.2 32.15,22.05 -18.28,-34.65 34.03,38.11 -13.86,12.6 z" /></clipPath><clipPath
       id="clipPath26"
       clipPathUnits="userSpaceOnUse"><path
         inkscape:connector-curvature="0"
         id="path24"
         d="m 304.82,3323.96 v 4158.2 h 3214.39 v -4158.2 z m 2070.44,2490.2 32.15,22.05 -18.28,-34.65 34.03,38.11 -13.86,12.6 z m -1125.35,-3.47 -17.96,34.97 32.14,-22.37 -33.4,38.44 -14.18,-12.29 z" /></clipPath><clipPath
       id="clipPath38"
       clipPathUnits="userSpaceOnUse"><path
         inkscape:connector-curvature="0"
         id="path36"
         d="m 304.82,3323.96 v 4158.2 h 3214.39 v -4158.2 z" /></clipPath><clipPath
       id="clipPath58"
       clipPathUnits="userSpaceOnUse"><path
         inkscape:connector-curvature="0"
         id="path56"
         d="m 304.82,3323.96 v 4158.2 h 3214.39 v -4158.2 z m 1711.5,3750.89 -34.66,17.95 39.07,0.63 -49.79,11.66 -4.1,-18.59 z" /></clipPath><clipPath
       id="clipPath64"
       clipPathUnits="userSpaceOnUse"><path
         inkscape:connector-curvature="0"
         id="path62"
         d="m 304.82,3323.96 v 4158.2 h 3214.39 v -4158.2 z m 1711.5,3750.89 -34.66,17.95 39.07,0.63 -49.79,11.66 -4.1,-18.59 z m 539.52,-969.93 -21.75,-32.13 4.1,38.42 -17.33,-47.87 17.64,-6.3 z" /></clipPath><clipPath
       id="clipPath76"
       clipPathUnits="userSpaceOnUse"><path
         inkscape:connector-curvature="0"
         id="path74"
         d="m 304.82,3323.96 v 4158.2 h 3214.39 v -4158.2 z" /></clipPath><clipPath
       id="clipPath96"
       clipPathUnits="userSpaceOnUse"><path
         inkscape:connector-curvature="0"
         id="path94"
         d="m 304.82,3323.96 v 4158.2 h 3214.39 v -4158.2 z m 1295.21,3777.03 38.76,0.95 -33.72,-19.22 49.16,13.55 -5.04,18.27 z" /></clipPath><clipPath
       id="clipPath102"
       clipPathUnits="userSpaceOnUse"><path
         inkscape:connector-curvature="0"
         id="path100"
         d="m 304.82,3323.96 v 4158.2 h 3214.39 v -4158.2 z m 1295.21,3777.03 38.76,0.95 -33.72,-19.22 49.16,13.55 -5.04,18.27 z m -498.55,-989.78 3.79,-38.42 -21.43,32.13 17.33,-47.88 17.65,6.3 z" /></clipPath><clipPath
       id="clipPath114"
       clipPathUnits="userSpaceOnUse"><path
         inkscape:connector-curvature="0"
         id="path112"
         d="m 304.82,3323.96 v 4158.2 h 3214.39 v -4158.2 z" /></clipPath><clipPath
       id="clipPath134"
       clipPathUnits="userSpaceOnUse"><path
         inkscape:connector-curvature="0"
         id="path132"
         d="m 304.82,3323.96 v 4158.2 h 3214.39 v -4158.2 z m 933.43,2772.14 -26.79,-28.67 10.09,37.49 -24.58,-44.74 16.7,-9.13 z" /></clipPath><clipPath
       id="clipPath140"
       clipPathUnits="userSpaceOnUse"><path
         inkscape:connector-curvature="0"
         id="path138"
         d="m 304.82,3323.96 v 4158.2 h 3214.39 v -4158.2 z m 933.43,2772.14 -26.79,-28.67 10.09,37.49 -24.58,-44.74 16.7,-9.13 z m 458.84,877.31 26.47,28.98 -9.77,-37.8 24.58,44.73 -16.7,9.14 z" /></clipPath><clipPath
       id="clipPath152"
       clipPathUnits="userSpaceOnUse"><path
         inkscape:connector-curvature="0"
         id="path150"
         d="m 304.82,3323.96 v 4158.2 h 3214.39 v -4158.2 z" /></clipPath><clipPath
       id="clipPath172"
       clipPathUnits="userSpaceOnUse"><path
         inkscape:connector-curvature="0"
         id="path170"
         d="m 304.82,3323.96 v 4158.2 h 3214.39 v -4158.2 z m 2112.67,2785.68 10.08,-37.48 -26.47,28.35 24.9,-44.74 16.7,9.45 z" /></clipPath><clipPath
       id="clipPath178"
       clipPathUnits="userSpaceOnUse"><path
         inkscape:connector-curvature="0"
         id="path176"
         d="m 304.82,3323.96 v 4158.2 h 3214.39 v -4158.2 z m 2112.67,2785.68 10.08,-37.48 -26.47,28.35 24.9,-44.74 16.7,9.45 z m -500.44,854.95 -10.39,37.8 26.78,-28.66 -24.89,44.73 -16.71,-9.45 z" /></clipPath><clipPath
       id="clipPath190"
       clipPathUnits="userSpaceOnUse"><path
         inkscape:connector-curvature="0"
         id="path188"
         d="m 304.82,3323.96 v 4158.2 h 3214.39 v -4158.2 z" /></clipPath><clipPath
       id="clipPath216"
       clipPathUnits="userSpaceOnUse"><path
         inkscape:connector-curvature="0"
         id="path214"
         d="m 304.82,3323.96 v 4158.2 H 3519.21 V 3323.96 Z M 1410,5927.25 l -38.13,9.76 38.13,9.14 -51.05,0.31 v -18.9 z" /></clipPath><clipPath
       id="clipPath228"
       clipPathUnits="userSpaceOnUse"><path
         inkscape:connector-curvature="0"
         id="path226"
         d="m 304.82,3323.96 v 4158.2 h 3214.39 v -4158.2 z" /></clipPath><clipPath
       id="clipPath258"
       clipPathUnits="userSpaceOnUse"><path
         inkscape:connector-curvature="0"
         id="path256"
         d="m 304.82,3323.96 v 4158.2 h 3214.39 v -4158.2 z m 1933.36,2703.46 25.84,-28.66 -36.56,12.91 42.55,-28.35 10.4,15.75 z" /></clipPath><clipPath
       id="clipPath270"
       clipPathUnits="userSpaceOnUse"><path
         inkscape:connector-curvature="0"
         id="path268"
         d="m 304.82,3323.96 v 4158.2 h 3214.39 v -4158.2 z" /></clipPath><clipPath
       id="clipPath284"
       clipPathUnits="userSpaceOnUse"><path
         inkscape:connector-curvature="0"
         id="path282"
         d="m 304.82,3323.96 v 4158.2 h 3214.39 v -4158.2 z m 1503.2,3634.65 9.45,37.8 9.46,-37.8 v 51.03 h -18.91 z" /></clipPath><clipPath
       id="clipPath296"
       clipPathUnits="userSpaceOnUse"><path
         inkscape:connector-curvature="0"
         id="path294"
         d="m 304.82,3323.96 v 4158.2 h 3214.39 v -4158.2 z" /></clipPath><clipPath
       id="clipPath308"
       clipPathUnits="userSpaceOnUse"><path
         inkscape:connector-curvature="0"
         id="path306"
         d="m 304.82,3323.96 v 4158.2 h 3214.39 v -4158.2 z m 1102.97,2691.49 -37.18,-12.28 27.1,28.03 -43.17,-27.4 10.4,-15.75 z" /></clipPath><clipPath
       id="clipPath320"
       clipPathUnits="userSpaceOnUse"><path
         inkscape:connector-curvature="0"
         id="path318"
         d="m 304.82,3323.96 v 4158.2 h 3214.39 v -4158.2 z" /></clipPath></defs><g
     transform="matrix(1.3333333,0,0,-1.3333333,-133.5887,1034.5536)"
     inkscape:label="Sargent_2009_Verification_and_validation_of_simulation_models"
     inkscape:groupmode="layer"
     id="g10"><g
   transform="matrix(0.22899109,0,0,0.22899109,-117.63354,-874.94503)"
   clip-path="url(#clipPath20)"
   id="g16"><g
     clip-path="url(#clipPath26)"
     id="g22"><g
       transform="scale(1.00019,-0.999808)"
       id="g28"><path
         inkscape:connector-curvature="0"
         id="path30"
         style="fill:none;stroke:#000000;stroke-width:2.36307001;stroke-linecap:butt;stroke-linejoin:miter;stroke-miterlimit:10;stroke-dasharray:none;stroke-opacity:1"
         d="m 1226.51,-5852.88 c 146.28,179.33 365.45,283.4 596.88,283.4 227.22,0 442.86,-100.33 589.21,-274.15" /></g></g></g><g
   transform="matrix(0.22899109,0,0,0.22899109,-117.63354,-874.94503)"
   clip-path="url(#clipPath38)"
   id="g34"><path
     inkscape:connector-curvature="0"
     id="path40"
     style="fill:#000000;fill-opacity:1;fill-rule:evenodd;stroke:none"
     d="m 2375.26,5814.16 32.15,22.05 -18.28,-34.65 -6.93,6.3 -6.94,6.3" /><g
     transform="scale(1.00019,-0.999808)"
     id="g42"><path
       inkscape:connector-curvature="0"
       id="path44"
       style="fill:none;stroke:#000000;stroke-width:2.36307001;stroke-linecap:butt;stroke-linejoin:miter;stroke-miterlimit:10;stroke-dasharray:none;stroke-opacity:1"
       d="m 2374.81,-5815.27 32.13,-22.06 -18.27,34.66 -6.93,-6.3 z" /></g><path
     inkscape:connector-curvature="0"
     id="path46"
     style="fill:#000000;fill-opacity:1;fill-rule:evenodd;stroke:none"
     d="m 1249.91,5810.69 -17.96,34.97 32.14,-22.37 -7.25,-6.3 -6.93,-6.3" /><g
     transform="scale(1.00019,-0.999808)"
     id="g48"><path
       inkscape:connector-curvature="0"
       id="path50"
       style="fill:none;stroke:#000000;stroke-width:2.36307001;stroke-linecap:butt;stroke-linejoin:miter;stroke-miterlimit:10;stroke-dasharray:none;stroke-opacity:1"
       d="m 1249.67,-5811.81 -17.96,-34.97 32.14,22.37 -7.25,6.3 z" /></g></g><g
   transform="matrix(0.22899109,0,0,0.22899109,-117.63354,-874.94503)"
   clip-path="url(#clipPath58)"
   id="g54"><g
     clip-path="url(#clipPath64)"
     id="g60"><g
       transform="scale(1.00019,-0.999808)"
       id="g66"><path
         inkscape:connector-curvature="0"
         id="path68"
         style="fill:none;stroke:#000000;stroke-width:2.36307001;stroke-linecap:butt;stroke-linejoin:miter;stroke-miterlimit:10;stroke-dasharray:none;stroke-opacity:1"
         d="m 2530.75,-6065.74 c 36,-90.02 54.5,-186.07 54.5,-283.02 0,-362.86 -255.82,-675.42 -611.52,-747.16" /></g></g></g><g
   transform="matrix(0.22899109,0,0,0.22899109,-117.63354,-874.94503)"
   clip-path="url(#clipPath76)"
   id="g72"><path
     inkscape:connector-curvature="0"
     id="path78"
     style="fill:#000000;fill-opacity:1;fill-rule:evenodd;stroke:none"
     d="m 2016.32,7074.85 -34.66,17.95 39.07,0.63 -2.2,-9.13 -2.21,-9.45" /><g
     transform="scale(1.00019,-0.999808)"
     id="g80"><path
       inkscape:connector-curvature="0"
       id="path82"
       style="fill:none;stroke:#000000;stroke-width:2.36307001;stroke-linecap:butt;stroke-linejoin:miter;stroke-miterlimit:10;stroke-dasharray:none;stroke-opacity:1"
       d="m 2015.93,-7076.21 -34.65,-17.96 39.07,-0.62 -2.21,9.13 z" /></g><path
     inkscape:connector-curvature="0"
     id="path84"
     style="fill:#000000;fill-opacity:1;fill-rule:evenodd;stroke:none"
     d="m 2555.84,6104.92 -21.75,-32.13 4.1,38.42 8.82,-3.14 8.83,-3.15" /><g
     transform="scale(1.00019,-0.999808)"
     id="g86"><path
       inkscape:connector-curvature="0"
       id="path88"
       style="fill:none;stroke:#000000;stroke-width:2.36307001;stroke-linecap:butt;stroke-linejoin:miter;stroke-miterlimit:10;stroke-dasharray:none;stroke-opacity:1"
       d="m 2555.35,-6106.09 -21.75,32.14 4.1,-38.44 8.82,3.15 z" /></g></g><g
   transform="matrix(0.22899109,0,0,0.22899109,-117.63354,-874.94503)"
   clip-path="url(#clipPath96)"
   id="g92"><g
     clip-path="url(#clipPath102)"
     id="g98"><g
       transform="scale(1.00019,-0.999808)"
       id="g104"><path
         inkscape:connector-curvature="0"
         id="path106"
         style="fill:none;stroke:#000000;stroke-width:2.36307001;stroke-linecap:butt;stroke-linejoin:miter;stroke-miterlimit:10;stroke-dasharray:none;stroke-opacity:1"
         d="m 1108.04,-6066.18 c -35.99,-90.88 -54.47,-187.76 -54.47,-285.51 0,-358.08 245.16,-669.61 593.2,-753.79" /></g></g></g><g
   transform="matrix(0.22899109,0,0,0.22899109,-117.63354,-874.94503)"
   clip-path="url(#clipPath114)"
   id="g110"><path
     inkscape:connector-curvature="0"
     id="path116"
     style="fill:#000000;fill-opacity:1;fill-rule:evenodd;stroke:none"
     d="m 1600.03,7100.99 38.76,0.95 -33.72,-19.22 -2.52,9.14 -2.52,9.13" /><g
     transform="scale(1.00019,-0.999808)"
     id="g118"><path
       inkscape:connector-curvature="0"
       id="path120"
       style="fill:none;stroke:#000000;stroke-width:2.36307001;stroke-linecap:butt;stroke-linejoin:miter;stroke-miterlimit:10;stroke-dasharray:none;stroke-opacity:1"
       d="m 1599.72,-7102.35 38.75,-0.95 -33.71,19.22 -2.52,-9.14 z" /></g><path
     inkscape:connector-curvature="0"
     id="path122"
     style="fill:#000000;fill-opacity:1;fill-rule:evenodd;stroke:none"
     d="m 1101.48,6111.21 3.79,-38.42 -21.43,32.13 8.82,3.15 8.82,3.14" /><g
     transform="scale(1.00019,-0.999808)"
     id="g124"><path
       inkscape:connector-curvature="0"
       id="path126"
       style="fill:none;stroke:#000000;stroke-width:2.36307001;stroke-linecap:butt;stroke-linejoin:miter;stroke-miterlimit:10;stroke-dasharray:none;stroke-opacity:1"
       d="m 1101.27,-6112.39 3.78,38.44 -21.42,-32.14 8.82,-3.15 z" /></g></g><g
   transform="matrix(0.22899109,0,0,0.22899109,-117.63354,-874.94503)"
   clip-path="url(#clipPath134)"
   id="g130"><g
     clip-path="url(#clipPath140)"
     id="g136"><g
       transform="scale(1.00019,-0.999808)"
       id="g142"><path
         inkscape:connector-curvature="0"
         id="path144"
         style="fill:none;stroke:#000000;stroke-width:2.36307001;stroke-linecap:butt;stroke-linejoin:miter;stroke-miterlimit:10;stroke-dasharray:21.0155;stroke-dashoffset:0;stroke-opacity:1"
         d="m 1727.32,-7010.99 -519.87,949.96" /></g></g></g><g
   transform="matrix(0.22899109,0,0,0.22899109,-117.63354,-874.94503)"
   clip-path="url(#clipPath152)"
   id="g148"><path
     inkscape:connector-curvature="0"
     id="path154"
     style="fill:#000000;fill-opacity:1;fill-rule:evenodd;stroke:none"
     d="m 1697.09,6973.41 26.47,28.98 -9.77,-37.8 -8.51,4.41 -8.19,4.41" /><g
     transform="scale(1.00019,-0.999808)"
     id="g156"><path
       inkscape:connector-curvature="0"
       id="path158"
       style="fill:none;stroke:#000000;stroke-width:2.36307001;stroke-linecap:butt;stroke-linejoin:miter;stroke-miterlimit:10;stroke-dasharray:none;stroke-opacity:1"
       d="m 1696.76,-6974.75 26.47,-28.99 -9.77,37.81 -8.51,-4.41 z" /></g><path
     inkscape:connector-curvature="0"
     id="path160"
     style="fill:#000000;fill-opacity:1;fill-rule:evenodd;stroke:none"
     d="m 1238.25,6096.1 -26.79,-28.67 10.09,37.49 8.51,-4.41 8.19,-4.41" /><g
     transform="scale(1.00019,-0.999808)"
     id="g162"><path
       inkscape:connector-curvature="0"
       id="path164"
       style="fill:none;stroke:#000000;stroke-width:2.36307001;stroke-linecap:butt;stroke-linejoin:miter;stroke-miterlimit:10;stroke-dasharray:none;stroke-opacity:1"
       d="m 1238.01,-6097.27 -26.78,28.68 10.09,-37.5 8.5,4.41 z" /></g></g><g
   transform="matrix(0.22899109,0,0,0.22899109,-117.63354,-874.94503)"
   clip-path="url(#clipPath172)"
   id="g168"><g
     clip-path="url(#clipPath178)"
     id="g174"><g
       transform="scale(1.00019,-0.999808)"
       id="g180"><path
         inkscape:connector-curvature="0"
         id="path182"
         style="fill:none;stroke:#000000;stroke-width:2.36307001;stroke-linecap:butt;stroke-linejoin:miter;stroke-miterlimit:10;stroke-dasharray:21.0155;stroke-dashoffset:0;stroke-opacity:1"
         d="m 1902.19,-7010.99 529.33,945.23" /></g></g></g><g
   transform="matrix(0.22899109,0,0,0.22899109,-117.63354,-874.94503)"
   clip-path="url(#clipPath190)"
   id="g186"><path
     inkscape:connector-curvature="0"
     id="path192"
     style="fill:#000000;fill-opacity:1;fill-rule:evenodd;stroke:none"
     d="m 1917.05,6964.59 -10.39,37.8 26.78,-28.66 -8.19,-4.41 -8.2,-4.73" /><g
     transform="scale(1.00019,-0.999808)"
     id="g194"><path
       inkscape:connector-curvature="0"
       id="path196"
       style="fill:none;stroke:#000000;stroke-width:2.36307001;stroke-linecap:butt;stroke-linejoin:miter;stroke-miterlimit:10;stroke-dasharray:none;stroke-opacity:1"
       d="m 1916.69,-6965.93 -10.4,-37.81 26.78,28.68 -8.19,4.41 z" /></g><path
     inkscape:connector-curvature="0"
     id="path198"
     style="fill:#000000;fill-opacity:1;fill-rule:evenodd;stroke:none"
     d="m 2417.49,6109.64 10.08,-37.48 -26.47,28.35 8.2,4.41 8.19,4.72" /><g
     transform="scale(1.00019,-0.999808)"
     id="g200"><path
       inkscape:connector-curvature="0"
       id="path202"
       style="fill:none;stroke:#000000;stroke-width:2.36307001;stroke-linecap:butt;stroke-linejoin:miter;stroke-miterlimit:10;stroke-dasharray:none;stroke-opacity:1"
       d="m 2417.02,-6110.81 10.09,37.49 -26.47,-28.36 8.19,-4.41 z" /></g><path
     inkscape:connector-curvature="0"
     id="path204"
     style="fill:#ffffff;fill-opacity:1;fill-rule:evenodd;stroke:none"
     d="m 2337.45,6584.37 h 260.301 v 259.887 H 2337.45 Z" /><path
     inkscape:connector-curvature="0"
     id="path206"
     style="fill:#ffffff;fill-opacity:1;fill-rule:evenodd;stroke:none"
     d="m 1661.48,5436.14 h 283.621 v 235.945 H 1661.48 Z" /><path
     inkscape:connector-curvature="0"
     id="path208"
     style="fill:#ffffff;fill-opacity:1;fill-rule:evenodd;stroke:none"
     d="m 1392.04,6513.49 h 245.805 v 82.5312 H 1392.04 Z" /></g><g
   transform="matrix(0.22899109,0,0,0.22899109,-117.63354,-874.94503)"
   clip-path="url(#clipPath216)"
   id="g212"><g
     transform="scale(1.00019,-0.999808)"
     id="g218"><path
       inkscape:connector-curvature="0"
       id="path220"
       style="fill:none;stroke:#000000;stroke-width:2.36307001;stroke-linecap:butt;stroke-linejoin:miter;stroke-miterlimit:10;stroke-dasharray:21.0155;stroke-dashoffset:0;stroke-opacity:1"
       d="m 1363.41,-5938.15 912.15,4.72" /></g></g><g
   transform="matrix(0.22899109,0,0,0.22899109,-117.63354,-874.94503)"
   clip-path="url(#clipPath228)"
   id="g224"><path
     inkscape:connector-curvature="0"
     id="path230"
     style="fill:#000000;fill-opacity:1;fill-rule:evenodd;stroke:none"
     d="m 1410,5927.25 -38.13,9.76 38.13,9.14 v -18.9" /><g
     transform="scale(1.00019,-0.999808)"
     id="g232"><path
       inkscape:connector-curvature="0"
       id="path234"
       style="fill:none;stroke:#000000;stroke-width:2.36307001;stroke-linecap:butt;stroke-linejoin:miter;stroke-miterlimit:10;stroke-dasharray:none;stroke-opacity:1"
       d="m 1409.73,-5928.38 -38.13,-9.77 38.13,-9.14 z" /></g><path
     inkscape:connector-curvature="0"
     id="path236"
     style="fill:#ffffff;fill-opacity:1;fill-rule:evenodd;stroke:none"
     d="m 2044.37,6433.16 h 175.219 v 226.812 H 2044.37 Z" /><path
     inkscape:connector-curvature="0"
     id="path238"
     style="fill:#ffffff;fill-opacity:1;fill-rule:evenodd;stroke:none"
     d="m 1018.6,6612.72 h 255.574 v 193.734 H 1018.6 Z" /><g
     transform="scale(1.00019,-0.999808)"
     id="g240"><path
       inkscape:connector-curvature="0"
       id="path242"
       style="fill:none;stroke:#000000;stroke-width:2.36307001;stroke-linecap:butt;stroke-linejoin:miter;stroke-miterlimit:10;stroke-dasharray:none;stroke-opacity:1"
       d="m 1646.98,-7209.48 h 326.11 v 203.22 h -326.11 z" /></g><g
     transform="scale(1.00019,-0.999808)"
     id="g244"><path
       inkscape:connector-curvature="0"
       id="path246"
       style="fill:none;stroke:#000000;stroke-width:2.36307001;stroke-linecap:butt;stroke-linejoin:miter;stroke-miterlimit:10;stroke-dasharray:none;stroke-opacity:1"
       d="m 952.239,-6065.76 h 411.171 v 217.4 H 952.239 Z" /></g><g
     transform="scale(1.00019,-0.999808)"
     id="g248"><path
       inkscape:connector-curvature="0"
       id="path250"
       style="fill:none;stroke:#000000;stroke-width:2.36307001;stroke-linecap:butt;stroke-linejoin:miter;stroke-miterlimit:10;stroke-dasharray:none;stroke-opacity:1"
       d="m 2270.83,-6065.76 h 397 v 222.13 h -397 z" /></g></g><g
   transform="matrix(0.22899109,0,0,0.22899109,-117.63354,-874.94503)"
   clip-path="url(#clipPath258)"
   id="g254"><g
     transform="scale(1.00019,-0.999808)"
     id="g260"><path
       inkscape:connector-curvature="0"
       id="path262"
       style="fill:none;stroke:#000000;stroke-width:2.36307001;stroke-linecap:butt;stroke-linejoin:miter;stroke-miterlimit:10;stroke-dasharray:none;stroke-opacity:1"
       d="m 1883.29,-6254.8 387.54,259.93" /></g></g><g
   transform="matrix(0.22899109,0,0,0.22899109,-117.63354,-874.94503)"
   clip-path="url(#clipPath270)"
   id="g266"><path
     inkscape:connector-curvature="0"
     id="path272"
     style="fill:#000000;fill-opacity:1;fill-rule:evenodd;stroke:none"
     d="m 2238.18,6027.42 25.84,-28.66 -36.56,12.91 5.36,7.88 5.36,7.87" /><g
     transform="scale(1.00019,-0.999808)"
     id="g274"><path
       inkscape:connector-curvature="0"
       id="path276"
       style="fill:none;stroke:#000000;stroke-width:2.36307001;stroke-linecap:butt;stroke-linejoin:miter;stroke-miterlimit:10;stroke-dasharray:none;stroke-opacity:1"
       d="m 2237.75,-6028.58 25.84,28.67 -36.56,-12.92 5.36,-7.87 z" /></g></g><g
   transform="matrix(0.22899109,0,0,0.22899109,-117.63354,-874.94503)"
   clip-path="url(#clipPath284)"
   id="g280"><g
     transform="scale(1.00019,-0.999808)"
     id="g286"><path
       inkscape:connector-curvature="0"
       id="path288"
       style="fill:none;stroke:#000000;stroke-width:2.36307001;stroke-linecap:butt;stroke-linejoin:miter;stroke-miterlimit:10;stroke-dasharray:none;stroke-opacity:1"
       d="m 1817.12,-7006.26 v 567.14" /></g></g><g
   transform="matrix(0.22899109,0,0,0.22899109,-117.63354,-874.94503)"
   clip-path="url(#clipPath296)"
   id="g292"><g
     transform="scale(1.00019,-0.999808)"
     id="g298"><path
       inkscape:connector-curvature="0"
       id="path300"
       style="fill:none;stroke:#000000;stroke-width:2.36307001;stroke-linecap:butt;stroke-linejoin:miter;stroke-miterlimit:10;stroke-dasharray:none;stroke-opacity:1"
       d="m 1807.67,-6959.94 9.45,-37.81 9.46,37.81" /></g></g><g
   transform="matrix(0.22899109,0,0,0.22899109,-117.63354,-874.94503)"
   clip-path="url(#clipPath308)"
   id="g304"><g
     transform="scale(1.00019,-0.999808)"
     id="g310"><path
       inkscape:connector-curvature="0"
       id="path312"
       style="fill:none;stroke:#000000;stroke-width:2.36307001;stroke-linecap:butt;stroke-linejoin:miter;stroke-miterlimit:10;stroke-dasharray:none;stroke-opacity:1"
       d="m 1769.86,-6259.53 -406.45,259.94" /></g></g>
<text
   mask="none"
   clip-path="none"
   y="-659.90881"
   x="429.04932"
   transform="scale(1.00019,-0.99981003)"
   style="font-variant:normal;font-weight:normal;font-size:15.15137005px;font-family:Times;-inkscape-font-specification:Times-Roman;writing-mode:lr-tb;fill:#000000;fill-opacity:1;fill-rule:nonzero;stroke:none;stroke-width:2.28947592"
   id="text2831"><tspan
     style="stroke-width:2.28947592"
     x="429.04932"
     y="-659.90881"
     sodipodi:role="line"
     id="tspan2829">Model</tspan></text>
<text
   mask="none"
   clip-path="none"
   y="-678.66718"
   x="414.27777"
   transform="scale(1.00019,-0.99981003)"
   style="font-variant:normal;font-weight:normal;font-size:15.15137005px;font-family:Times;-inkscape-font-specification:Times-Roman;writing-mode:lr-tb;fill:#000000;fill-opacity:1;fill-rule:nonzero;stroke:none;stroke-width:2.28947592"
   id="text2835"><tspan
     style="stroke-width:2.28947592"
     x="414.27777"
     y="-678.66718"
     sodipodi:role="line"
     id="tspan2833">Conceptual</tspan></text>
<text
   mask="none"
   clip-path="none"
   y="-475.35092"
   x="429.04932"
   transform="scale(1.00019,-0.99981003)"
   style="font-variant:normal;font-weight:normal;font-size:15.15137005px;font-family:Times;-inkscape-font-specification:Times-Roman;writing-mode:lr-tb;fill:#000000;fill-opacity:1;fill-rule:nonzero;stroke:none;stroke-width:2.28947592"
   id="text2839"><tspan
     style="stroke-width:2.28947592"
     x="429.04932"
     y="-475.35092"
     sodipodi:role="line"
     id="tspan2837">Model</tspan></text>
<text
   mask="none"
   clip-path="none"
   y="-495.91306"
   x="414.27777"
   transform="scale(1.00019,-0.99981003)"
   style="font-variant:normal;font-weight:normal;font-size:15.15137005px;font-family:Times;-inkscape-font-specification:Times-Roman;writing-mode:lr-tb;fill:#000000;fill-opacity:1;fill-rule:nonzero;stroke:none;stroke-width:2.28947592"
   id="text2843"><tspan
     style="stroke-width:2.28947592"
     x="414.27777"
     y="-495.91306"
     sodipodi:role="line"
     id="tspan2841">Conceptual</tspan></text>
<text
   mask="none"
   clip-path="none"
   y="-477.51505"
   x="128.18616"
   transform="scale(1.00019,-0.99981003)"
   style="font-variant:normal;font-weight:normal;font-size:15.15137005px;font-family:Times;-inkscape-font-specification:Times-Roman;writing-mode:lr-tb;fill:#000000;fill-opacity:1;fill-rule:nonzero;stroke:none;stroke-width:2.28947592"
   id="text2847"><tspan
     style="stroke-width:2.28947592"
     x="128.18616"
     y="-477.51505"
     sodipodi:role="line"
     id="tspan2845">Model</tspan></text>
<text
   mask="none"
   clip-path="none"
   y="-495.91306"
   x="102.75077"
   transform="scale(1.00019,-0.99981003)"
   style="font-variant:normal;font-weight:normal;font-size:15.15137005px;font-family:Times;-inkscape-font-specification:Times-Roman;writing-mode:lr-tb;fill:#000000;fill-opacity:1;fill-rule:nonzero;stroke:none;stroke-width:2.28947592"
   id="text2851"><tspan
     style="stroke-width:2.28947592"
     x="102.75077"
     y="-495.91306"
     sodipodi:role="line"
     id="tspan2849">Computerized</tspan></text>
<text
   mask="none"
   clip-path="none"
   y="-670.6582"
   x="108.2508"
   transform="scale(1.00019,-0.99981003)"
   style="font-variant:normal;font-weight:normal;font-size:15.15137005px;font-family:Times;-inkscape-font-specification:Times-Roman;writing-mode:lr-tb;fill:#000000;fill-opacity:1;fill-rule:nonzero;stroke:none;stroke-width:2.28947592"
   id="text2855"><tspan
     style="stroke-width:2.28947592"
     x="108.2508"
     y="-670.6582"
     sodipodi:role="line"
     id="tspan2853">Operational</tspan></text>
<text
   mask="none"
   clip-path="none"
   y="-623.5451"
   x="171.07794"
   transform="scale(1.00019,-0.99981003)"
   style="font-variant:normal;font-weight:normal;font-size:15.15137005px;font-family:Times;-inkscape-font-specification:Times-Roman;writing-mode:lr-tb;fill:#000000;fill-opacity:1;fill-rule:nonzero;stroke:none;stroke-width:2.28947592"
   id="text2859"><tspan
     style="stroke-width:2.28947592"
     x="171.07794"
     y="-623.5451"
     sodipodi:role="line"
     id="tspan2857">Experimentation</tspan></text>
<text
   mask="none"
   clip-path="none"
   y="-418.06366"
   x="254.26422"
   transform="scale(1.00019,-0.99981003)"
   style="font-variant:normal;font-weight:normal;font-size:15.15137005px;font-family:Times;-inkscape-font-specification:Times-Roman;writing-mode:lr-tb;fill:#000000;fill-opacity:1;fill-rule:nonzero;stroke:none;stroke-width:2.28947592"
   id="text2863"><tspan
     style="stroke-width:2.28947592"
     x="254.26422"
     y="-418.06366"
     sodipodi:role="line"
     id="tspan2861">Computerized</tspan></text>
<text
   mask="none"
   clip-path="none"
   y="-399.66577"
   x="277.53549"
   transform="scale(1.00019,-0.99981003)"
   style="font-variant:normal;font-weight:normal;font-size:15.15137005px;font-family:Times;-inkscape-font-specification:Times-Roman;writing-mode:lr-tb;fill:#000000;fill-opacity:1;fill-rule:nonzero;stroke:none;stroke-width:2.28947592"
   id="text2867"><tspan
     style="stroke-width:2.28947592"
     x="277.53549"
     y="-399.66577"
     sodipodi:role="line"
     id="tspan2865">Model</tspan></text>
<text
   mask="none"
   clip-path="none"
   y="-758.82391"
   x="271.616"
   transform="scale(1.00019,-0.99981003)"
   style="font-variant:normal;font-weight:normal;font-size:15.15137005px;font-family:Times;-inkscape-font-specification:Times-Roman;writing-mode:lr-tb;fill:#000000;fill-opacity:1;fill-rule:nonzero;stroke:none;stroke-width:2.28947592"
   id="text2871"><tspan
     style="stroke-width:2.28947592"
     x="271.616"
     y="-758.82391"
     sodipodi:role="line"
     id="tspan2869">Problem</tspan></text>
<text
   mask="none"
   clip-path="none"
   y="-741.50848"
   x="278.82065"
   transform="scale(1.00019,-0.99981003)"
   style="font-variant:normal;font-weight:normal;font-size:15.15137005px;font-family:Times;-inkscape-font-specification:Times-Roman;writing-mode:lr-tb;fill:#000000;fill-opacity:1;fill-rule:nonzero;stroke:none;stroke-width:2.28947592"
   id="text2875"><tspan
     style="stroke-width:2.28947592"
     x="278.82065"
     y="-741.50848"
     sodipodi:role="line"
     id="tspan2873">Entity</tspan></text>
<text
   mask="none"
   clip-path="none"
   y="-494.39642"
   x="226.43927"
   transform="scale(1.00019,-0.99981003)"
   style="font-variant:normal;font-weight:normal;font-size:15.15137005px;font-family:Times;-inkscape-font-specification:Times-Roman;writing-mode:lr-tb;fill:#000000;fill-opacity:1;fill-rule:nonzero;stroke:none;stroke-width:2.28947592"
   id="text2879"><tspan
     style="stroke-width:2.28947592"
     x="226.43927"
     y="-494.39642"
     sodipodi:role="line"
     id="tspan2877">Computer Programming</tspan></text>
<text
   mask="none"
   clip-path="none"
   transform="scale(1.00019,-0.99981003)"
   style="font-variant:normal;font-weight:normal;font-size:15.15137005px;font-family:Times;-inkscape-font-specification:Times-Roman;writing-mode:lr-tb;fill:#000000;fill-opacity:1;fill-rule:nonzero;stroke:none;stroke-width:2.28947592"
   id="text2883"
   y="-582.63452"
   x="280.96259"><tspan
     style="stroke-width:2.28947592"
     sodipodi:role="line"
     id="tspan2881"
     y="-582.63452"
     x="280.96259">Data</tspan></text>
<text
   mask="none"
   clip-path="none"
   y="-608.46344"
   x="341.5191"
   transform="scale(1.00019,-0.99981003)"
   style="font-variant:normal;font-weight:normal;font-size:15.15137005px;font-family:Times;-inkscape-font-specification:Times-Roman;writing-mode:lr-tb;fill:#000000;fill-opacity:1;fill-rule:nonzero;stroke:none;stroke-width:2.28947592"
   id="text2887"><tspan
     style="stroke-width:2.28947592"
     x="341.5191"
     y="-608.46344"
     sodipodi:role="line"
     id="tspan2885">Modeling</tspan></text>
<text
   mask="none"
   clip-path="none"
   y="-624.6972"
   x="359.99402"
   transform="scale(1.00019,-0.99981003)"
   style="font-variant:normal;font-weight:normal;font-size:15.15137005px;font-family:Times;-inkscape-font-specification:Times-Roman;writing-mode:lr-tb;fill:#000000;fill-opacity:1;fill-rule:nonzero;stroke:none;stroke-width:2.28947592"
   id="text2891"><tspan
     style="stroke-width:2.28947592"
     x="359.99402"
     y="-624.6972"
     sodipodi:role="line"
     id="tspan2889">and</tspan></text>
<text
   mask="none"
   clip-path="none"
   y="-640.93085"
   x="346.5845"
   transform="scale(1.00019,-0.99981003)"
   style="font-variant:normal;font-weight:normal;font-size:15.15137005px;font-family:Times;-inkscape-font-specification:Times-Roman;writing-mode:lr-tb;fill:#000000;fill-opacity:1;fill-rule:nonzero;stroke:none;stroke-width:2.28947592"
   id="text2895"><tspan
     style="stroke-width:2.28947592"
     x="346.5845"
     y="-640.93085"
     sodipodi:role="line"
     id="tspan2893">Analysis</tspan></text>
<text
   mask="none"
   clip-path="none"
   y="-468.42249"
   x="237.57553"
   transform="scale(1.00019,-0.99981003)"
   style="font-variant:normal;font-weight:normal;font-size:15.15137005px;font-family:Times;-inkscape-font-specification:Times-Roman;writing-mode:lr-tb;fill:#000000;fill-opacity:1;fill-rule:nonzero;stroke:none;stroke-width:2.28947592"
   id="text2899"><tspan
     style="stroke-width:2.28947592"
     x="237.57553"
     y="-468.42249"
     sodipodi:role="line"
     id="tspan2897">and Implementation</tspan></text>
<text
   mask="none"
   clip-path="none"
   y="-565.31805"
   x="275.55106"
   transform="scale(1.00019,-0.99981003)"
   style="font-variant:normal;font-weight:normal;font-size:15.15137005px;font-family:Times;-inkscape-font-specification:Times-Roman;writing-mode:lr-tb;fill:#000000;fill-opacity:1;fill-rule:nonzero;stroke:none;stroke-width:2.28947592"
   id="text2903"><tspan
     style="stroke-width:2.28947592"
     x="275.55106"
     y="-565.31805"
     sodipodi:role="line"
     id="tspan2901">Validity</tspan></text>
<text
   mask="none"
   clip-path="none"
   y="-652.69116"
   x="121.42979"
   transform="scale(1.00019,-0.99981003)"
   style="font-variant:normal;font-weight:normal;font-size:15.15137005px;font-family:Times;-inkscape-font-specification:Times-Roman;writing-mode:lr-tb;fill:#000000;fill-opacity:1;fill-rule:nonzero;stroke:none;stroke-width:2.28947592"
   id="text2907"><tspan
     style="stroke-width:2.28947592"
     x="121.42979"
     y="-652.69116"
     sodipodi:role="line"
     id="tspan2905">Validity</tspan></text>
<text
   mask="none"
   clip-path="none"
   y="-641.14722"
   x="425.03348"
   transform="scale(1.00019,-0.99981003)"
   style="font-variant:normal;font-weight:normal;font-size:15.15137005px;font-family:Times;-inkscape-font-specification:Times-Roman;writing-mode:lr-tb;fill:#000000;fill-opacity:1;fill-rule:nonzero;stroke:none;stroke-width:2.28947592"
   id="text2911"><tspan
     style="stroke-width:2.28947592"
     x="425.03348"
     y="-641.14722"
     sodipodi:role="line"
     id="tspan2909">Validity</tspan></text>
<text
   mask="none"
   clip-path="none"
   y="-381.26645"
   x="260.58276"
   transform="scale(1.00019,-0.99981003)"
   style="font-variant:normal;font-weight:normal;font-size:15.15137005px;font-family:Times;-inkscape-font-specification:Times-Roman;writing-mode:lr-tb;fill:#000000;fill-opacity:1;fill-rule:nonzero;stroke:none;stroke-width:2.28947592"
   id="text2915"><tspan
     style="stroke-width:2.28947592"
     x="260.58276"
     y="-381.26645"
     sodipodi:role="line"
     id="tspan2913">Verification</tspan></text>
</g></svg>